HIERARCHY
ROOT Hips
{
	OFFSET 0.000000 0.000000 0.000000
	CHANNELS 6 Xposition Yposition Zposition Zrotation Yrotation Xrotation 
	JOINT LHipJoint
	{
		OFFSET 0.000000 0.000000 0.000000
		CHANNELS 3 Zrotation Yrotation Xrotation
		JOINT LeftUpLeg
		{
			OFFSET 1.363060 -1.794630 0.839290
			CHANNELS 3 Zrotation Yrotation Xrotation
			JOINT LeftLeg
			{
				OFFSET 2.448110 -6.726130 0.000000
				CHANNELS 3 Zrotation Yrotation Xrotation
				JOINT LeftFoot
				{
					OFFSET 2.562200 -7.039590 0.000000
					CHANNELS 3 Zrotation Yrotation Xrotation
					JOINT LeftToeBase
					{
						OFFSET 0.157640 -0.433110 2.322550
						CHANNELS 3 Zrotation Yrotation Xrotation
						End Site
						{
							OFFSET 0.000000 0.000000 0.000000
						}
					}
				}
			}
		}
	}
	JOINT RHipJoint
	{
		OFFSET 0.000000 0.000000 0.000000
		CHANNELS 3 Zrotation Yrotation Xrotation
		JOINT RightUpLeg
		{
			OFFSET -1.305520 -1.794630 0.839290
			CHANNELS 3 Zrotation Yrotation Xrotation
			JOINT RightLeg
			{
				OFFSET -2.542530 -6.985550 0.000000
				CHANNELS 3 Zrotation Yrotation Xrotation
				JOINT RightFoot
				{
					OFFSET -2.568260 -7.056230 0.000000
					CHANNELS 3 Zrotation Yrotation Xrotation
					JOINT RightToeBase
					{
						OFFSET -0.164730 -0.452590 2.363150
						CHANNELS 3 Zrotation Yrotation Xrotation
						End Site
						{
							OFFSET 0.000000 0.000000 0.000000
						}
					}
				}
			}
		}
	}
	JOINT LowerBack
	{
		OFFSET 0.000000 0.000000 0.000000
		CHANNELS 3 Zrotation Yrotation Xrotation
		JOINT Spine
		{
			OFFSET 0.028270 2.035590 -0.193380
			CHANNELS 3 Zrotation Yrotation Xrotation
			JOINT Spine1
			{
				OFFSET 0.056720 2.048850 -0.042750
				CHANNELS 3 Zrotation Yrotation Xrotation
				JOINT Neck
				{
					OFFSET 0.000000 0.000000 0.000000
					CHANNELS 3 Zrotation Yrotation Xrotation
					JOINT Neck1
					{
						OFFSET -0.054170 1.746240 0.172020
						CHANNELS 3 Zrotation Yrotation Xrotation
						JOINT Head
						{
							OFFSET 0.104070 1.761360 -0.123970
							CHANNELS 3 Zrotation Yrotation Xrotation
							End Site
							{
								OFFSET 0.000000 0.000000 0.000000
							}
						}
					}
				}
				JOINT LeftShoulder
				{
					OFFSET 0.000000 0.000000 0.000000
					CHANNELS 3 Zrotation Yrotation Xrotation
					JOINT LeftArm
					{
						OFFSET 3.362410 1.200890 -0.311210
						CHANNELS 3 Zrotation Yrotation Xrotation
						JOINT LeftForeArm
						{
							OFFSET 4.983000 -0.000000 -0.000000
							CHANNELS 3 Zrotation Yrotation Xrotation
							JOINT LeftHand
							{
								OFFSET 3.483560 -0.000000 -0.000000
								CHANNELS 3 Zrotation Yrotation Xrotation
								JOINT LeftFingerBase
								{
									OFFSET 0.000000 0.000000 0.000000
									CHANNELS 3 Zrotation Yrotation Xrotation
									JOINT LeftHandIndex1
									{
										OFFSET 0.715260 -0.000000 -0.000000
										CHANNELS 3 Zrotation Yrotation Xrotation
										End Site
										{
											OFFSET 0.000000 0.000000 0.000000
										}
									}
								}
								JOINT LThumb
								{
									OFFSET 0.000000 0.000000 0.000000
									CHANNELS 3 Zrotation Yrotation Xrotation
									End Site
									{
										OFFSET 0.000000 0.000000 0.000000
									}
								}
							}
						}
					}
				}
				JOINT RightShoulder
				{
					OFFSET 0.000000 0.000000 0.000000
					CHANNELS 3 Zrotation Yrotation Xrotation
					JOINT RightArm
					{
						OFFSET -3.136600 1.374050 -0.404650
						CHANNELS 3 Zrotation Yrotation Xrotation
						JOINT RightForeArm
						{
							OFFSET -5.241900 -0.000000 -0.000000
							CHANNELS 3 Zrotation Yrotation Xrotation
							JOINT RightHand
							{
								OFFSET -3.444170 -0.000000 -0.000000
								CHANNELS 3 Zrotation Yrotation Xrotation
								JOINT RightFingerBase
								{
									OFFSET 0.000000 0.000000 0.000000
									CHANNELS 3 Zrotation Yrotation Xrotation
									JOINT RightHandIndex1
									{
										OFFSET -0.622530 -0.000000 -0.000000
										CHANNELS 3 Zrotation Yrotation Xrotation
										End Site
										{
											OFFSET 0.000000 0.000000 0.000000
										}
									}
								}
								JOINT RThumb
								{
									OFFSET 0.000000 0.000000 0.000000
									CHANNELS 3 Zrotation Yrotation Xrotation
									End Site
									{
										OFFSET 0.000000 0.000000 0.000000
									}
								}
							}
						}
					}
				}
			}
		}
	}
}
MOTION
Frames: 8
Frame Time: 0.008333
11.335606 18.074073 -43.528090 -6.580194 -62.984746 10.825262 0.578705 0.996007 1.021241 -15.241157 -2.414711 -21.945674 2.723452 14.786185 42.749406 -0.532268 5.123870 -5.421673 1.227700 -7.027200 -19.796100 -3.877681 -2.218941 0.802428 29.386430 7.765387 -10.900985 2.321600 -8.638428 25.505699 7.477020 -27.941071 -22.386198 -1.659800 -8.118300 23.073800 3.049636 0.445571 8.550516 4.372720 0.890636 7.469499 -3.891879 0.387715 -11.460352 6.087618 14.232073 -11.629010 0.744569 18.837241 5.103837 -2.690900 9.274300 3.366500 -0.785040 -10.898752 2.101044 -96.572685 -9.577181 90.075799 104.551083 -56.788754 -80.635203 -1.144207 1.703412 -19.622660 -30.721345 -19.321301 12.176400 -7.125000 0.000000 0.000000 -34.087200 7.268000 37.084400 -0.238130 12.309328 2.193350 96.670238 20.640448 66.122069 -19.640066 22.549490 -5.706793 1.339257 0.688645 15.990775 -9.083359 -56.818936 8.600600 7.125000 0.000000 0.000000 85.304900 -75.690400 -70.431300 
11.342922 18.078793 -43.557237 -6.121570 -61.674695 10.562223 0.578090 1.022986 1.021641 -15.528963 -1.941928 -22.063885 2.739365 14.849302 42.931552 -0.984374 6.300890 -6.233544 1.170900 -6.868600 -19.326800 -3.863403 -2.143182 0.742492 29.378925 7.253710 -11.270699 2.358140 -8.636153 25.522185 7.226167 -27.586408 -23.342039 -2.092000 -9.055100 25.968000 3.826422 0.738888 8.365554 3.108049 1.411309 7.330057 -4.472183 0.546032 -11.319182 7.412853 13.423429 -12.294035 0.999253 17.654901 5.588674 -2.781700 8.738100 3.588300 -0.672294 -10.832189 2.117906 -94.357427 -10.784111 92.713559 104.625846 -56.635796 -80.746219 -1.268671 1.555902 -21.204244 -28.357821 -20.102325 11.334000 -7.125000 0.000000 0.000000 -32.903300 7.194500 35.145800 -0.200943 12.378448 2.160028 97.510537 20.898087 64.728195 -19.716639 22.623721 -5.680430 1.343121 0.690790 16.207386 -8.980142 -55.935602 8.431300 7.125000 0.000000 0.000000 81.887500 -75.640400 -66.958000 
11.353897 18.074781 -43.588272 -5.827778 -60.265857 10.391566 0.602872 1.023563 1.031514 -15.727751 -1.337725 -22.176467 2.727130 14.828918 42.913201 -1.117000 6.656875 -6.536151 0.849100 -5.877000 -16.427800 -3.820003 -2.110706 0.722204 29.447565 6.833321 -11.614492 2.392429 -8.652372 25.549639 7.046141 -27.437380 -24.243607 -2.480300 -9.802000 28.337800 3.813895 0.687562 8.361418 3.340018 1.343997 7.048516 -4.417783 0.506756 -11.416039 7.182605 13.017424 -12.474009 1.341168 17.089427 5.903869 -2.673400 8.487700 3.614900 -0.711717 -10.820018 2.128084 -94.555728 -10.698024 92.906008 104.500354 -56.661026 -80.650336 -1.288535 1.549347 -21.019385 -28.386262 -20.512930 11.530400 -7.125000 0.000000 0.000000 -32.832500 6.814800 35.326300 -0.200926 12.373869 2.169212 97.425805 20.677854 65.088127 -19.857409 22.795938 -5.724681 1.333141 0.695426 15.981957 -8.345619 -55.517926 7.855000 7.125000 0.000000 0.000000 80.386600 -75.384700 -65.187600 
11.366051 18.075843 -43.626152 -5.685658 -59.064690 10.193831 0.603048 1.062301 1.081091 -15.814194 -0.882014 -22.056240 2.701381 14.779266 42.837858 -1.138451 6.777435 -6.994643 0.559000 -4.788800 -13.307300 -3.807537 -2.102995 0.693590 29.631480 6.445803 -11.789340 2.393417 -8.686077 25.620402 7.114566 -27.806455 -24.701156 -2.620100 -10.053000 29.148600 3.982162 0.713527 8.603639 3.317113 1.419957 6.875117 -4.526312 0.519001 -11.624794 7.017112 12.571071 -12.718102 1.777075 16.441024 6.150557 -2.553800 8.194200 3.617100 -0.726767 -10.811320 2.138819 -94.671661 -10.387981 93.193078 104.374746 -56.685192 -80.561003 -1.263623 1.582101 -20.777747 -28.860793 -20.371775 11.715300 -7.125000 0.000000 0.000000 -33.072300 6.821700 35.717800 -0.187975 12.358606 2.167414 97.542085 20.601386 65.263731 -19.917356 22.865038 -5.726000 1.326021 0.704114 15.788409 -7.571109 -54.932796 7.154400 7.125000 0.000000 0.000000 78.388300 -75.045900 -62.848700 
11.371480 18.082687 -43.648455 -5.523161 -57.956408 10.183747 0.615404 1.063883 1.113137 -15.981360 -0.427771 -22.096639 2.643072 14.723199 42.697776 -1.348512 7.346300 -7.546195 0.544800 -4.728700 -13.136300 -3.763017 -2.085756 0.684788 29.665106 6.014410 -12.215389 2.394181 -8.730340 25.658631 7.226005 -28.164842 -24.902490 -2.740400 -10.262500 29.831100 3.484116 0.757368 8.359129 3.963068 1.396164 6.817293 -4.179436 0.549612 -11.532712 6.793739 12.166535 -13.159368 1.980621 15.911862 6.534108 -2.458100 7.956800 3.731700 -0.835954 -10.809093 2.107391 -95.777516 -11.044380 93.346833 102.221377 -56.841797 -78.931150 -1.276151 1.600419 -21.379751 -29.238693 -19.842462 11.663600 -7.125000 0.000000 0.000000 -33.329800 7.191600 35.854000 -0.232017 12.415507 2.195716 97.155415 20.547241 65.855565 -20.029659 22.987295 -5.752917 1.322154 0.699951 15.502959 -6.843517 -54.210796 6.496300 7.125000 0.000000 0.000000 75.940000 -74.676700 -60.064000 
11.380802 18.087761 -43.673236 -5.191894 -56.805188 9.989451 0.614326 1.065351 1.136684 -16.220670 0.020032 -22.111700 2.571453 14.656343 42.509168 -1.657510 8.091330 -7.745764 0.421900 -4.168800 -11.552000 -3.714083 -2.070143 0.675536 29.594114 5.627915 -12.556823 2.406296 -8.753931 25.685299 7.184796 -28.200365 -25.332003 -3.034100 -10.750000 31.441400 3.143548 0.731442 8.279587 4.340264 1.310602 6.668153 -3.880357 0.540574 -11.536315 6.388102 11.791424 -13.454112 2.319708 15.410851 6.816067 -2.309400 7.732000 3.760400 -0.839712 -10.775854 2.141410 -94.936140 -10.621156 93.156586 104.048750 -56.730715 -80.333402 -1.274488 1.583562 -21.388386 -29.091027 -20.097338 11.705600 -7.125000 0.000000 0.000000 -33.222500 7.009200 35.820100 -0.267381 12.400024 2.200183 96.869862 20.405761 66.579175 -20.102835 23.080993 -5.771864 1.326211 0.683619 15.331768 -7.071832 -53.627296 6.645400 7.125000 0.000000 0.000000 73.677500 -74.649200 -57.878600 
11.392839 18.084575 -43.697781 -5.023064 -55.665130 9.653387 0.603931 1.117149 1.203530 -16.366566 0.503912 -21.913269 2.505250 14.560390 42.284892 -2.004124 8.887213 -7.698521 0.358300 -3.845700 -10.643000 -3.673715 -2.075559 0.684481 29.645848 5.341447 -12.597446 2.423531 -8.777057 25.817964 6.895503 -27.918912 -26.477591 -3.445700 -11.383800 33.585600 3.088459 0.701058 8.475876 4.603316 1.269046 6.665126 -3.817257 0.526642 -11.688579 5.970025 11.428573 -13.594668 2.683783 14.901828 6.925307 -2.179600 7.493400 3.716200 -0.865332 -10.787019 2.143213 -95.246252 -10.554858 93.074363 103.752894 -56.773075 -80.107821 -1.254776 1.610986 -21.353398 -29.526890 -19.826636 11.804800 -7.125000 0.000000 0.000000 -33.466200 7.137400 36.126800 -0.279835 12.375315 2.204753 96.700729 20.275886 67.105169 -20.146864 23.136547 -5.789137 1.328953 0.677336 15.076083 -7.579759 -53.414161 7.048600 7.125000 0.000000 0.000000 72.649300 -74.789300 -57.067700 
11.406645 18.085047 -43.725159 -4.902249 -54.468629 9.694096 0.603468 1.102581 1.202275 -16.463327 0.964685 -22.023852 2.405949 14.457370 41.928668 -2.280277 9.497730 -7.469096 0.433500 -4.224900 -11.710400 -3.637572 -2.029466 0.657801 29.720830 5.254993 -12.952475 2.456822 -8.843765 25.961692 6.649414 -27.847620 -27.764150 -3.698600 -11.748100 34.846600 3.141237 0.690271 8.442606 4.794096 1.265005 6.407402 -3.834833 0.513228 -11.749156 5.664706 11.048194 -13.631228 3.003374 14.357312 6.964910 -2.086600 7.234000 3.649600 -0.904635 -10.803955 2.151427 -95.800962 -10.258524 92.572766 103.784061 -56.821093 -80.104726 -1.205759 1.671345 -21.049213 -30.613427 -19.465205 12.193100 -7.125000 0.000000 0.000000 -34.007400 7.162800 37.032800 -0.276297 12.342025 2.219426 96.566015 20.061316 67.382485 -20.206513 23.228374 -5.842999 1.309111 0.704392 14.762557 -6.727346 -54.060002 6.387900 7.125000 0.000000 0.000000 75.395700 -74.605800 -59.462100 
